<svg width="178" height="110" viewBox="0 0 178 110" fill="none" xmlns="http://www.w3.org/2000/svg">
<g filter="url(#filter0_d_249_2217)">
<path d="M101.338 55H9.99995" stroke="#276EEC" stroke-width="3"/>
</g>
<ellipse cx="123.5" cy="55" rx="54.5" ry="55" fill="url(#paint0_linear_249_2217)"/>
<g filter="url(#filter1_i_249_2217)">
<ellipse cx="123.5" cy="55" rx="50.5" ry="51" fill="#453364"/>
</g>
<g filter="url(#filter2_d_249_2217)">
<path d="M132.637 11.7956C130.23 13.1044 129.977 14.4342 129.681 27.8386C129.365 42.4884 129.66 41.2851 126.853 39.0476C123.897 36.7255 119.971 37.0844 118.43 39.8708C117.755 41.0529 117.543 41.1374 116.108 40.9052C113.195 40.4197 110.134 42.2139 109.079 45.0426C108.699 46.0347 108.509 46.1403 107.622 45.8025C103.337 44.1771 99.6851 50.4465 101.458 56.336C101.712 57.1593 102.07 60.2201 102.282 63.1754C102.873 71.5557 103.822 76.1153 106.609 83.9891C108.72 89.9207 109.205 91.7995 109.416 94.8603C109.733 99.4832 110.472 99.9054 110.641 95.5569L110.767 92.3483L111.907 92.5383C112.688 92.686 112.921 92.6016 112.625 92.3061C112.393 92.0739 111.844 91.8206 111.401 91.7361C109.543 91.3984 104.793 75.5665 103.991 67.0595C103.738 64.2942 103.316 60.7056 103.063 59.0802C101.902 51.7131 102.134 49.7288 104.35 47.7234C106.419 45.8447 108.846 47.0479 111.168 51.1009C112.731 53.8029 112.731 53.7185 110.831 54.014C108.762 54.3517 106.503 55.365 106.503 55.9349C106.503 56.1882 106.651 56.336 106.82 56.2516C111.126 54.014 112.836 53.824 112.878 55.555C112.878 56.336 113.132 57.8136 113.406 58.8691C113.892 60.7478 113.87 60.7689 112.625 61.4022C111.675 61.8877 111.316 62.3732 111.232 63.4076C111.021 65.4763 110.725 65.2019 107.094 59.7346C105.258 56.9693 103.611 54.6895 103.443 54.6684C102.725 54.605 103.231 56.2305 104.414 57.7925C105.575 59.3124 105.617 59.5024 104.941 59.7557C104.308 59.9879 104.392 60.0934 105.363 60.3467C106.039 60.5156 106.799 61.17 107.158 61.8666C107.495 62.5421 108.361 63.7453 109.058 64.5475L110.345 66.004L108.741 66.2573C105.828 66.7217 104.561 67.1228 105.237 67.3761C105.596 67.5028 107.116 67.355 108.614 67.0384C110.577 66.6373 111.717 66.5951 112.583 66.8906C114.124 67.4183 115.791 66.4895 115.813 65.0963C115.813 64.1675 115.834 64.1464 116.446 64.9908C116.784 65.4552 117.375 66.194 117.755 66.6373C118.388 67.3972 118.324 67.545 116.784 68.9593C113.068 72.4212 108.741 78.1629 109.353 78.7751C109.628 79.0495 110.113 78.6484 110.746 77.6141C113.153 73.73 118.979 67.5661 119.908 67.925C120.224 68.0516 120.836 68.1572 121.238 68.1572C121.892 68.1572 121.829 68.4527 120.794 70.5847C118.768 74.701 117.945 84.8334 119.528 86.4166C119.929 86.8177 119.992 86.1211 119.781 82.9336C119.443 77.9518 120.013 74.4266 121.744 70.6903C123.137 67.6083 124.784 65.6452 125.269 66.4262C125.692 67.1228 128.309 66.975 129.069 66.2151C131.138 64.1464 131.222 63.1754 129.892 54.8584L129.618 53.1696L131.201 54.7106L132.805 56.2516L132.742 61.8244C132.7 67.3339 133.544 71.1124 134.832 71.1124C135.381 71.1124 135.296 70.1625 134.663 69.1915C134.367 68.7482 133.882 67.7983 133.608 67.1017L133.08 65.8351L133.903 66.8906C135.064 68.3471 135.571 67.5872 134.452 66.0673C132.974 64.0831 133.312 61.1278 134.853 62.4999C135.275 62.901 135.761 63.1121 135.887 62.9643C136.035 62.8376 135.676 62.2677 135.085 61.74C133.565 60.3467 132.974 56.0194 134.41 56.7793C134.959 57.0748 135.423 57.117 135.592 56.8637C135.718 56.6526 136.394 56.2727 137.091 56.0616C137.766 55.8294 138.42 55.3861 138.505 55.0906C138.653 54.6684 138.484 54.605 137.914 54.8584C137.471 55.0483 136.352 55.3016 135.423 55.3861C131.18 55.8294 125.375 45.6125 127.845 42.0662C128.71 40.863 129.386 41.2851 129.28 42.9739C129.175 45.0215 129.217 45.1692 130.42 46.3513C131.623 47.5757 133.143 47.8079 133.903 46.8791C134.325 46.3725 134.642 46.4147 135.972 47.0479C136.837 47.449 138.167 47.9345 138.927 48.0823C140.088 48.3356 140.278 48.5256 140.067 49.3066C139.856 50.1088 139.877 50.1299 140.278 49.4755C140.827 48.61 141.587 48.5256 142.326 49.2644C142.727 49.6655 142.621 49.9188 141.882 50.5099C141.334 50.9109 141.144 51.2487 141.418 51.2698C141.692 51.2698 142.03 51.0798 142.178 50.8476C142.579 50.2143 143.107 50.341 143.423 51.1431C143.592 51.6286 143.36 52.1353 142.727 52.6419L141.756 53.444L142.706 53.1696C143.634 52.9163 143.656 52.9796 143.656 56.2093C143.656 58.0247 143.867 61.3389 144.141 63.5765C144.732 68.2416 144.859 67.7772 140.384 77.8674C135.634 88.612 135.74 88.422 134.6 88.422C134.03 88.422 133.481 88.5909 133.354 88.7808C132.953 89.4141 133.586 89.6463 134.621 89.2452L135.634 88.8653V92.475C135.634 95.6624 135.718 96.0635 136.373 95.9369C137.006 95.8313 137.069 95.3458 136.964 92.3061C136.837 88.9708 136.901 88.6331 138.526 85.129C146.294 68.4105 145.851 70.2892 145.091 57.3492C144.648 49.8133 144.31 48.8211 141.735 47.5757L140.278 46.9002V38.4143C140.32 14.7298 138.547 8.56588 132.637 11.7956ZM136.605 13.6743C138.04 15.363 138.484 17.7906 138.864 25.9387C139.18 32.1871 139.117 46.6258 138.8 46.9846C138.357 47.449 133.84 44.5571 132.404 42.9105L130.694 40.9263L130.99 28.4718C131.286 15.6586 131.37 14.9831 132.805 13.3788C133.988 12.07 135.36 12.1755 136.605 13.6743ZM124.784 39.1742C126.747 39.9975 127.444 40.9474 126.726 41.8129C125.776 42.9528 126.093 46.6258 127.359 49.4122C128.119 51.0798 128.71 53.4229 129.111 56.5049C129.766 61.4022 129.745 61.8033 128.879 60.7689C128.161 59.9035 126.853 59.9668 124.868 60.98C122.926 61.9722 122.969 61.951 122.969 61.36C122.969 61.1067 122.377 59.5868 121.66 57.9614C120.963 56.3149 120.457 54.9217 120.541 54.8161C120.71 54.6473 124.889 53.8029 125.586 53.8029C126.747 53.8029 125.206 54.6473 123.581 54.8795C120.752 55.3016 120.625 56.1038 123.433 55.7449C125.502 55.4916 126.768 54.7106 126.768 53.7396C126.768 53.0007 124.531 52.8952 122.567 53.5496C119.908 54.4151 120.013 54.4362 120.013 53.043C120.013 52.3886 119.633 49.7921 119.169 47.2801C117.902 40.3352 120.055 37.1899 124.784 39.1742ZM133.375 45.9925C132.742 47.8923 129.723 45.3592 129.745 42.9528L129.766 41.3485L131.644 43.4594C132.679 44.5993 133.46 45.7392 133.375 45.9925ZM116.72 42.5095C117.079 42.805 117.501 43.7971 117.628 44.7259C118.261 49.0744 119.169 54.3728 119.359 55.0272C119.549 55.6183 119.127 55.8294 117.016 56.2727C115.601 56.5682 114.546 56.9271 114.694 57.0537C114.82 57.2015 115.981 57.0748 117.269 56.7582C118.557 56.4415 119.654 56.2727 119.718 56.3782C119.992 56.716 122.124 61.7188 122.124 61.9933C122.124 62.1199 121.554 62.2466 120.836 62.2466C120.013 62.2466 119.148 62.6477 118.472 63.3231C117.881 63.9142 117.353 64.3575 117.29 64.2731C116.066 62.6265 114.483 58.8691 114.124 56.7582C113.427 52.8319 112.984 51.6286 111.337 49.3277C110.535 48.1878 109.881 46.8791 109.881 46.4147C109.881 43.6494 114.694 40.9052 116.72 42.5095ZM129.027 62.2888C130.188 65.6029 126.156 67.7139 124.721 64.5475C123.897 62.7321 124.13 61.9933 125.607 61.5078C127.655 60.8323 128.605 61.0434 129.027 62.2888ZM114.926 63.0487C115.601 64.6741 115.369 65.6663 114.229 66.0885C113.026 66.5317 111.992 65.5607 111.992 63.9986C111.992 61.6766 114.082 61.0222 114.926 63.0487ZM122.715 64.4842C123.201 66.3418 122.546 67.3128 120.858 67.3128C118.303 67.3128 117.649 64.1464 120.013 63.2809C121.976 62.5632 122.272 62.6899 122.715 64.4842Z" fill="white"/>
<path d="M132.467 25.5167C133.185 25.8333 133.206 25.8755 132.573 25.9177C130.356 26.0022 132.256 26.7832 134.705 26.7832C137.28 26.7832 137.554 26.6988 137.554 25.9388C137.554 25.1789 137.301 25.0945 134.599 25.1156C132.552 25.1367 131.876 25.2633 132.467 25.5167Z" fill="white"/>
<path d="M132.046 36.0709C131.877 36.3453 132.975 36.472 135.086 36.4509C137.387 36.4298 138.062 36.3031 137.324 36.0709C135.783 35.5854 132.342 35.5854 132.046 36.0709Z" fill="white"/>
<path d="M131.814 37.2757C132.764 37.9301 137.155 38.3312 138.041 37.8034C138.653 37.4446 138.379 37.3601 136.69 37.339C135.529 37.339 133.819 37.2124 132.891 37.0857C131.687 36.9169 131.371 36.9802 131.814 37.2757Z" fill="white"/>
<path d="M116.425 57.8343L114.736 58.3832L116.214 58.4043C117.037 58.4043 118.05 58.151 118.515 57.7921C119.528 57.0322 118.789 57.0533 116.425 57.8343Z" fill="white"/>
<path d="M109.354 55.7889C107.666 56.3589 106.294 57.5621 107.877 57.0766C108.172 56.9921 109.312 56.6544 110.41 56.3378C111.507 56 112.415 55.5989 112.415 55.409C112.415 54.9234 111.655 55.029 109.354 55.7889Z" fill="white"/>
</g>
<defs>
<filter id="filter0_d_249_2217" x="0" y="45.5" width="111.338" height="23" filterUnits="userSpaceOnUse" color-interpolation-filters="sRGB">
<feFlood flood-opacity="0" result="BackgroundImageFix"/>
<feColorMatrix in="SourceAlpha" type="matrix" values="0 0 0 0 0 0 0 0 0 0 0 0 0 0 0 0 0 0 127 0" result="hardAlpha"/>
<feOffset dy="2"/>
<feGaussianBlur stdDeviation="5"/>
<feComposite in2="hardAlpha" operator="out"/>
<feColorMatrix type="matrix" values="0 0 0 0 1 0 0 0 0 1 0 0 0 0 1 0 0 0 0.25 0"/>
<feBlend mode="normal" in2="BackgroundImageFix" result="effect1_dropShadow_249_2217"/>
<feBlend mode="normal" in="SourceGraphic" in2="effect1_dropShadow_249_2217" result="shape"/>
</filter>
<filter id="filter1_i_249_2217" x="73" y="4" width="101" height="106" filterUnits="userSpaceOnUse" color-interpolation-filters="sRGB">
<feFlood flood-opacity="0" result="BackgroundImageFix"/>
<feBlend mode="normal" in="SourceGraphic" in2="BackgroundImageFix" result="shape"/>
<feColorMatrix in="SourceAlpha" type="matrix" values="0 0 0 0 0 0 0 0 0 0 0 0 0 0 0 0 0 0 127 0" result="hardAlpha"/>
<feOffset dy="4"/>
<feGaussianBlur stdDeviation="11.5"/>
<feComposite in2="hardAlpha" operator="arithmetic" k2="-1" k3="1"/>
<feColorMatrix type="matrix" values="0 0 0 0 0 0 0 0 0 0 0 0 0 0 0 0 0 0 0.25 0"/>
<feBlend mode="normal" in2="shape" result="effect1_innerShadow_249_2217"/>
</filter>
<filter id="filter2_d_249_2217" x="94" y="8" width="58.4824" height="101.586" filterUnits="userSpaceOnUse" color-interpolation-filters="sRGB">
<feFlood flood-opacity="0" result="BackgroundImageFix"/>
<feColorMatrix in="SourceAlpha" type="matrix" values="0 0 0 0 0 0 0 0 0 0 0 0 0 0 0 0 0 0 127 0" result="hardAlpha"/>
<feOffset dy="4"/>
<feGaussianBlur stdDeviation="3.5"/>
<feComposite in2="hardAlpha" operator="out"/>
<feColorMatrix type="matrix" values="0 0 0 0 0.0351201 0 0 0 0 0.0331479 0 0 0 0 0.0331479 0 0 0 0.64 0"/>
<feBlend mode="normal" in2="BackgroundImageFix" result="effect1_dropShadow_249_2217"/>
<feBlend mode="normal" in="SourceGraphic" in2="effect1_dropShadow_249_2217" result="shape"/>
</filter>
<linearGradient id="paint0_linear_249_2217" x1="69" y1="50.5" x2="178" y2="49" gradientUnits="userSpaceOnUse">
<stop stop-color="#246EED"/>
<stop offset="1" stop-color="#EB6597"/>
</linearGradient>
</defs>
</svg>
